<svg xmlns="http://www.w3.org/2000/svg" width="40" height="40" viewBox="0 0 40 40">
  <g id="Instagram" transform="translate(-436 -1002)">
    <rect id="Bg" width="40" height="40" transform="translate(436 1002)" fill="#fff" opacity="0"/>
    <path fill="white" id="Path_56" data-name="Path 56" d="M13.03,5.838a7.184,7.184,0,1,0,7.184,7.184A7.184,7.184,0,0,0,13.03,5.838Zm0,11.848a4.663,4.663,0,1,1,4.663-4.663A4.662,4.662,0,0,1,13.03,17.686Z" transform="translate(442.975 1008.972)"/>
    <path fill="white" id="Path_57" data-name="Path 57" d="M19.773.089c-2.576-.12-8.957-.114-11.535,0A8.367,8.367,0,0,0,2.363,2.353C-.33,5.046.014,8.674.014,14c0,5.446-.3,8.99,2.349,11.642,2.7,2.7,6.384,2.349,11.642,2.349,5.395,0,7.257,0,9.164-.735,2.594-1.007,4.551-3.325,4.743-7.489.121-2.577.114-8.957,0-11.535C27.68,3.312,25.043.331,19.773.089ZM23.85,23.856c-1.765,1.765-4.214,1.608-9.879,1.608-5.833,0-8.173.086-9.879-1.625-1.966-1.957-1.61-5.1-1.61-9.862,0-6.446-.662-11.088,5.808-11.419,1.486-.053,1.924-.07,5.665-.07l.052.035c6.217,0,11.1-.651,11.388,5.817.066,1.476.082,1.919.082,5.655,0,5.766.109,8.119-1.626,9.862Z" transform="translate(442 1007.999)"/>
    <circle fill="white" id="Ellipse_2" data-name="Ellipse 2" cx="1.679" cy="1.679" r="1.679" transform="translate(461.795 1012.848)"/>
  </g>
</svg>