<svg xmlns="http://www.w3.org/2000/svg" width="20" height="18" viewBox="0 0 20 18" fill="none">
    <path d="M4.93945 2C4.93919 2.53043 4.72822 3.03904 4.35296 3.41392C3.9777 3.78881 3.46889 3.99927 2.93845 3.999C2.40802 3.99874 1.89942 3.78777 1.52453 3.41251C1.14965 3.03725 0.939188 2.52843 0.939453 1.998C0.939719 1.46757 1.15069 0.958965 1.52595 0.58408C1.90121 0.209195 2.41002 -0.00126442 2.94045 -0.0009992C3.47089 -0.000733984 3.97949 0.210234 4.35437 0.585494C4.72926 0.960755 4.93972 1.46957 4.93945 2ZM4.99945 5.48H0.999453V18H4.99945V5.48ZM11.3195 5.48H7.33945V18H11.2795V11.43C11.2795 7.77 16.0495 7.43 16.0495 11.43V18H19.9995V10.07C19.9995 3.9 12.9395 4.13 11.2795 7.16L11.3195 5.48Z" fill="#fff"/>
</svg>