<svg width="180" height="41" viewBox="0 0 180 41" fill="none" xmlns="http://www.w3.org/2000/svg">
<path d="M125.798 9.10498C123.262 9.10498 121.042 10.0738 119.447 11.6983L118.767 9.54111H116.328V37.9404L119.951 34.562V25.4596C121.575 26.8599 123.654 27.6188 125.798 27.5934C126.399 27.5944 126.998 27.5423 127.591 27.4377C127.939 27.3723 128.276 27.282 128.61 27.1932C132.384 26.053 134.919 22.6341 134.919 18.3508C134.919 13.0426 131.067 9.10498 125.798 9.10498ZM125.515 24.12C122.192 24.12 119.742 21.6388 119.742 18.3414C119.742 15.044 122.192 12.5628 125.515 12.5628C128.837 12.5628 131.257 15.0238 131.257 18.3477C131.257 21.6715 128.832 24.1263 125.515 24.1263V24.12Z" fill="white"/>
<path d="M136.485 3.22656V27.1541H140.106V3.22656H136.485Z" fill="white"/>
<path d="M155.059 9.54126V19.2091C155.059 22.2355 153.422 24.1249 150.68 24.1249C147.939 24.1249 146.289 22.2682 146.289 19.2091V9.54126H142.674V19.7169C142.674 24.4567 145.847 27.5827 150.687 27.5827C155.526 27.5827 158.686 24.4567 158.686 19.7169V9.54126H155.059Z" fill="white"/>
<path d="M167.651 16.5284C165.526 16.1795 163.728 15.8727 163.728 14.3182C163.728 13.0333 164.975 12.1812 166.968 12.1812C169.096 12.1812 170.372 13.0784 170.442 14.7543H173.868C173.798 11.3386 171.147 9.11279 167.051 9.11279C162.955 9.11279 160.224 11.2731 160.224 14.4351C160.224 18.5159 163.682 19.1825 166.61 19.6856C168.767 20.0486 170.66 20.4302 170.66 22.1015C170.66 23.5733 169.166 24.3973 167.221 24.3973C165.098 24.3973 163.534 23.4238 163.44 21.561H159.904C159.998 25.2151 162.813 27.5825 167.096 27.5825C171.38 27.5825 174.239 25.3646 174.239 21.9442C174.244 17.6016 170.629 17.0284 167.651 16.5284Z" fill="white"/>
<path d="M101.732 9.63002V27.2432H98.8112L98.4592 25.1015C96.8642 26.7151 94.6384 27.6808 92.0731 27.6808C86.8256 27.6808 82.9037 23.7152 82.9037 18.4366C82.9037 13.1579 86.8256 9.20947 92.0731 9.20947C94.6696 9.20947 96.9171 10.1908 98.5153 11.8325L98.9389 9.62846L101.732 9.63002ZM98.1024 18.4366C98.1024 15.1158 95.6758 12.658 92.3566 12.658C89.0374 12.658 86.5936 15.1392 86.5936 18.4366C86.5936 21.734 89.0358 24.2136 92.3643 24.2136C95.6929 24.2136 98.1024 21.7558 98.1024 18.4366Z" fill="white"/>
<path d="M114.602 9.54126V12.968H112.691C109.696 12.968 108.202 14.6813 108.202 17.8666V27.2603H104.581V9.63938H107.03L107.643 12.0427C108.903 10.373 110.63 9.54126 113.037 9.54126H114.602Z" fill="white"/>
<path d="M72.3478 27.6542C67.1004 27.6542 63.1177 23.6605 63.1177 18.4006C63.1177 13.1407 67.091 9.18286 72.3571 9.18286C76.7106 9.18286 80.1124 11.8494 81.0905 15.8898H77.5081C76.5814 13.8649 74.6499 12.6392 72.3541 12.6392C69.1829 12.6392 66.8091 15.1437 66.8091 18.4021C66.8091 21.6606 69.2155 24.1902 72.3541 24.1902C74.6593 24.1902 76.5253 22.9441 77.4848 20.8055H81.1388C80.1699 24.9206 76.7028 27.648 72.3541 27.648L72.3478 27.6542Z" fill="white"/>
<path d="M34.5472 19.5532C34.5472 22.1061 33.9647 24.4067 33.0332 26.0047L33.0145 25.9953C33.0141 25.9984 33.0141 26.0016 33.0145 26.0047H28.616C28.616 26.0047 29.1331 25.3583 29.5848 24.0453C30.0345 22.5907 30.2582 21.0757 30.2483 19.5532C30.2628 17.9114 29.9996 16.2788 29.4695 14.7248C29.2631 14.1371 28.9752 13.5814 28.6144 13.0737H33.0208C33.9553 14.6703 34.5472 16.9816 34.5472 19.5532Z" fill="white"/>
<path d="M30.8726 33.5186L33.1763 31.4315H42.8707C45.5096 31.4277 48.0395 30.3777 49.9055 28.5117C51.7715 26.6458 52.8215 24.1159 52.8252 21.477V17.6017C52.8215 14.9628 51.7715 12.4329 49.9055 10.5669C48.0395 8.70089 45.5096 7.65093 42.8707 7.64722H28.9179L32.086 10.9883H42.8676C43.7361 10.9881 44.5962 11.1589 45.3986 11.4913C46.2012 11.8235 46.9303 12.3106 47.5444 12.9248C48.1586 13.539 48.6457 14.2681 48.9781 15.0706C49.3103 15.873 49.4813 16.7331 49.4811 17.6017V21.477C49.4811 23.2309 48.7842 24.9131 47.544 26.1534C46.3037 27.3936 44.6216 28.0904 42.8676 28.0904H32.0736L31.6624 28.4783L28.5129 31.4376L26.2855 33.5249" fill="white"/>
<path d="M8.41068 26.0453V13.0333C8.41068 12.7644 8.46372 12.4981 8.56679 12.2496C8.66986 12.0012 8.82092 11.7755 9.01132 11.5855C9.20172 11.3956 9.42773 11.245 9.67638 11.1426C9.92505 11.0401 10.1915 10.9876 10.4605 10.9883H28.5984L25.4256 7.64722H10.4605C9.03259 7.64928 7.66382 8.2174 6.65416 9.22705C5.64452 10.2367 5.0764 11.6054 5.07434 13.0333V26.0453C5.0764 27.4732 5.64452 28.842 6.65416 29.8517C7.66382 30.8612 9.03259 31.4294 10.4605 31.4315H24.8774L28.3975 28.0904H10.4605C10.1916 28.0908 9.9252 28.0382 9.67662 27.9357C9.42805 27.8331 9.20214 27.6826 9.01178 27.4927C8.82141 27.3027 8.67035 27.0772 8.56721 26.8288C8.46407 26.5804 8.41087 26.3142 8.41068 26.0453Z" fill="white"/>
</svg>
