<svg width="159" height="34" viewBox="0 0 159 34" fill="none" xmlns="http://www.w3.org/2000/svg">
<path d="M113.185 6.23828C110.807 6.23828 108.725 7.1466 107.231 8.6697L106.593 6.64717H104.306V33.2731L107.702 30.1056V21.5716C109.225 22.8845 111.174 23.5959 113.185 23.5722C113.748 23.5731 114.31 23.5242 114.865 23.4262C115.192 23.3648 115.508 23.2801 115.82 23.1969C119.359 22.1279 121.736 18.9226 121.736 14.9067C121.736 9.92995 118.125 6.23828 113.185 6.23828ZM112.919 20.3157C109.804 20.3157 107.507 17.9894 107.507 14.8979C107.507 11.8065 109.804 9.48018 112.919 9.48018C116.034 9.48018 118.303 11.7875 118.303 14.9038C118.303 18.0201 116.029 20.3215 112.919 20.3215V20.3157Z" fill="#00226F"/>
<path d="M123.204 0.726807V23.1601H126.599V0.726807H123.204Z" fill="#00226F"/>
<path d="M140.618 6.64697V15.7111C140.618 18.5485 139.083 20.3199 136.513 20.3199C133.943 20.3199 132.396 18.5792 132.396 15.7111V6.64697H129.007V16.1872C129.007 20.6309 131.981 23.5618 136.519 23.5618C141.056 23.5618 144.019 20.6309 144.019 16.1872V6.64697H140.618Z" fill="#00226F"/>
<path d="M152.423 13.1982C150.431 12.871 148.746 12.5834 148.746 11.126C148.746 9.92121 149.914 9.12242 151.783 9.12242C153.778 9.12242 154.974 9.96356 155.04 11.5349H158.253C158.187 8.33239 155.701 6.24561 151.861 6.24561C148.02 6.24561 145.46 8.27106 145.46 11.2355C145.46 15.0615 148.702 15.6865 151.448 16.1582C153.47 16.4985 155.244 16.8562 155.244 18.4232C155.244 19.8031 153.844 20.5757 152.02 20.5757C150.03 20.5757 148.563 19.663 148.476 17.9164H145.159C145.248 21.3423 147.887 23.562 151.903 23.562C155.919 23.562 158.6 21.4825 158.6 18.2757C158.605 14.2043 155.215 13.6669 152.423 13.1982Z" fill="#00226F"/>
<path d="M90.621 6.73022V23.2434H87.883L87.5529 21.2355C86.0576 22.7484 83.9708 23.6538 81.5656 23.6538C76.6458 23.6538 72.9688 19.9358 72.9688 14.9868C72.9688 10.0378 76.6458 6.33594 81.5656 6.33594C84 6.33594 86.1072 7.25594 87.6055 8.79511L88.0027 6.72876L90.621 6.73022ZM87.2185 14.9868C87.2185 11.8734 84.9433 9.56907 81.8314 9.56907C78.7195 9.56907 76.4283 11.8953 76.4283 14.9868C76.4283 18.0783 78.718 20.4031 81.8387 20.4031C84.9594 20.4031 87.2185 18.0988 87.2185 14.9868Z" fill="#00226F"/>
<path d="M102.688 6.64697V9.85966H100.896C98.0877 9.85966 96.6872 11.466 96.6872 14.4523V23.2595H93.292V6.73897H95.5891L96.163 8.99224C97.3444 7.42678 98.9638 6.64697 101.22 6.64697H102.688Z" fill="#00226F"/>
<path d="M63.0721 23.6289C58.1524 23.6289 54.4183 19.8846 54.4183 14.9532C54.4183 10.0217 58.1436 6.31104 63.0809 6.31104C67.1625 6.31104 70.3518 8.81109 71.2689 12.5991H67.9102C67.0413 10.7007 65.2305 9.55147 63.078 9.55147C60.1048 9.55147 57.8793 11.8997 57.8793 14.9546C57.8793 18.0096 60.1355 20.3812 63.078 20.3812C65.2393 20.3812 66.9887 19.2129 67.8883 17.2079H71.3142C70.4058 21.066 67.1552 23.623 63.078 23.623L63.0721 23.6289Z" fill="#00226F"/>
<path opacity="0.6" d="M27.6319 16.0341C27.6319 18.4276 27.0858 20.5845 26.2125 22.0827L26.195 22.074C26.1945 22.0769 26.1945 22.0798 26.195 22.0827H22.071C22.071 22.0827 22.5559 21.4767 22.9794 20.2457C23.401 18.8819 23.6108 17.4615 23.6014 16.0341C23.6151 14.4948 23.3682 12.9642 22.8713 11.5072C22.6777 10.9563 22.4078 10.4352 22.0696 9.95923H26.2008C27.077 11.456 27.6319 13.6232 27.6319 16.0341Z" fill="#0053FF"/>
<path d="M24.1871 29.1274L26.3469 27.1706H35.4359C37.91 27.1671 40.2819 26.1827 42.0314 24.4332C43.7809 22.6837 44.7653 20.3119 44.7687 17.8377V14.2044C44.7653 11.7303 43.7809 9.35845 42.0314 7.60895C40.2819 5.85946 37.91 4.87506 35.4359 4.87158H22.3544L25.3247 8.00395H35.433C36.2473 8.00376 37.0536 8.16401 37.806 8.47555C38.5584 8.78708 39.242 9.2438 39.8178 9.81961C40.3936 10.3954 40.8503 11.079 41.1619 11.8314C41.4734 12.5838 41.6336 13.3901 41.6334 14.2044V17.8377C41.6334 19.4822 40.9802 21.0593 39.8174 22.2221C38.6546 23.3849 37.0774 24.0382 35.433 24.0382H25.313L24.9275 24.4018L21.9747 27.1764L19.8865 29.1332" fill="#0053FF"/>
<path d="M3.12799 22.1208V9.92134C3.12799 9.66918 3.17773 9.41949 3.27436 9.18658C3.37099 8.95366 3.51262 8.7421 3.69113 8.56399C3.86964 8.38589 4.08153 8.24475 4.31466 8.14865C4.5478 8.05255 4.7976 8.00338 5.04976 8.00395H22.0551L19.0804 4.87158H5.04976C3.71108 4.87351 2.42777 5.40616 1.48117 6.35276C0.534578 7.29935 0.00193145 8.58266 0 9.92134V22.1208C0.00193145 23.4595 0.534578 24.7428 1.48117 25.6894C2.42777 26.636 3.71108 27.1686 5.04976 27.1706H18.5664L21.8667 24.0382H5.04976C4.79765 24.0386 4.54794 23.9893 4.31489 23.8931C4.08184 23.7969 3.87003 23.6558 3.69156 23.4777C3.51309 23.2997 3.37145 23.0882 3.27475 22.8553C3.17805 22.6225 3.12818 22.3729 3.12799 22.1208Z" fill="#0053FF"/>
</svg>
